
<svg xmlns="http://www.w3.org/2000/svg" version="1.1" xmlns:xlink="http://www.w3.org/1999/xlink" preserveAspectRatio="none" x="0px" y="0px" width="1920px" height="1080px" viewBox="0 0 1920 1080">
<defs>
<g id="Layer0_0_FILL">
<path fill="#FF0000" stroke="none" d="
M 834.45 473
Q 831.790625 446.390625 812.15 426.75 789.45 404.05 757.35 404.05 725.25 404.05 702.5 426.75 682.9025390625 446.390625 680.2 473
L 834.45 473
M 723.15 315.9
Q 711.1 327.95 711.1 344.95 711.1 361.95 723.15 374 735.2 386.05 752.2 386.05 769.2 386.05 781.25 374 793.3 361.95 793.3 344.95 793.3 327.95 781.25 315.9 769.2 303.85 752.2 303.85 735.2 303.85 723.15 315.9 Z"/>
</g>

<path id="Layer0_0_1_STROKES" stroke="#000000" stroke-width="7" stroke-linejoin="round" stroke-linecap="round" fill="none" d="
M 793.3 344.95
Q 793.3 361.95 781.25 374 769.2 386.05 752.2 386.05 735.2 386.05 723.15 374 711.1 361.95 711.1 344.95 711.1 327.95 723.15 315.9 735.2 303.85 752.2 303.85 769.2 303.85 781.25 315.9 793.3 327.95 793.3 344.95 Z
M 891.3 392.4
Q 891.3 449.8 850.65 490.4 810.05 531.05 752.65 531.05 695.2 531.05 654.55 490.4 613.95 449.8 613.95 392.4 613.95 335 654.55 294.3 695.2 253.75 752.65 253.75 810.05 253.75 850.65 294.3 891.3 335 891.3 392.4 Z
M 702.5 426.75
Q 725.25 404.05 757.35 404.05 789.45 404.05 812.15 426.75 831.790625 446.390625 834.475 473
L 680.225 473
Q 682.9025390625 446.390625 702.5 426.75 Z"/>
</defs>

<g transform="matrix( 1, 0, 0, 1, 0,0) ">
<use xlink:href="#Layer0_0_FILL"/>

<use xlink:href="#Layer0_0_1_STROKES"/>
</g>
</svg>
